<svg width="1119" height="301" viewBox="0 0 1119 301" fill="none" xmlns="http://www.w3.org/2000/svg">
<path d="M718.77 300.99C714.95 300.99 711.52 300.36 708.46 299.1C705.43 297.81 702.91 295.99 700.92 293.64C698.95 291.29 697.66 288.5 697.05 285.26L702.74 284.31C703.65 287.85 705.57 290.63 708.5 292.65C711.43 294.65 714.93 295.64 719 295.64C721.68 295.64 724.08 295.22 726.2 294.39C728.32 293.53 729.99 292.32 731.2 290.75C732.41 289.18 733.02 287.33 733.02 285.18C733.02 283.77 732.77 282.57 732.26 281.58C731.75 280.57 731.08 279.74 730.25 279.08C729.42 278.42 728.51 277.88 727.52 277.45C726.53 276.99 725.57 276.63 724.64 276.35L710.8 272.22C709.13 271.74 707.59 271.13 706.18 270.4C704.76 269.64 703.53 268.75 702.46 267.71C701.42 266.65 700.62 265.41 700.03 264C699.45 262.58 699.16 260.97 699.16 259.15C699.16 256.07 699.97 253.4 701.59 251.15C703.21 248.9 705.42 247.17 708.22 245.96C711.02 244.75 714.22 244.15 717.81 244.18C721.45 244.18 724.7 244.82 727.55 246.11C730.43 247.4 732.81 249.24 734.68 251.64C736.55 254.01 737.79 256.83 738.4 260.09L732.56 261.15C732.18 258.78 731.31 256.72 729.94 254.97C728.58 253.23 726.83 251.89 724.71 250.95C722.61 249.99 720.3 249.5 717.77 249.47C715.32 249.47 713.13 249.89 711.21 250.72C709.31 251.53 707.81 252.64 706.7 254.06C705.59 255.47 705.03 257.09 705.03 258.91C705.03 260.73 705.54 262.23 706.55 263.34C707.59 264.45 708.85 265.32 710.34 265.96C711.86 266.59 713.32 267.11 714.74 267.51L725.43 270.66C726.54 270.96 727.84 271.41 729.33 271.99C730.85 272.54 732.31 273.35 733.73 274.41C735.17 275.45 736.36 276.81 737.29 278.5C738.22 280.19 738.69 282.34 738.69 284.94C738.69 287.54 738.18 289.73 737.17 291.72C736.18 293.72 734.78 295.4 732.96 296.76C731.17 298.12 729.06 299.16 726.63 299.87C724.23 300.6 721.6 300.97 718.74 300.97L718.77 300.99Z" fill="black"/>
<path d="M646.689 299.849V245.279H652.259V294.509H678.189V299.849H646.689Z" fill="black"/>
<path d="M587.52 299.849V245.279H621.64V250.619H593.09V269.489H617.09V274.829H593.09V294.499H621.64V299.839H587.52V299.849Z" fill="black"/>
<path d="M513.14 299.849L497.37 245.279H503.17L515.95 290.339L528.65 245.319L534.49 245.279L547.27 290.339L559.97 245.279H565.81L550.08 299.849H544.47L531.58 255.089L518.77 299.849H513.16H513.14Z" fill="black"/>
<path d="M443.01 299.849V245.279H477.13V250.619H448.58V269.489H472.58V274.829H448.58V294.499H477.13V299.839H443.01V299.849Z" fill="black"/>
<path d="M402.01 300.95C398.37 300.95 395.25 299.94 392.65 297.92C390.05 295.9 388.29 293.2 387.38 289.81L392.95 288.48C393.4 290.48 394.45 292.17 396.1 293.56C397.77 294.92 399.73 295.61 401.98 295.61C403.39 295.61 404.82 295.27 406.26 294.59C407.73 293.91 408.88 292.78 409.71 291.22C410.27 290.13 410.58 288.96 410.66 287.7C410.76 286.41 410.81 284.87 410.81 283.08V245.3H416.42V283.08C416.42 284.6 416.41 285.97 416.38 287.21C416.36 288.42 416.22 289.6 415.96 290.73C415.73 291.84 415.29 292.97 414.63 294.1C413.32 296.4 411.55 298.12 409.32 299.25C407.12 300.39 404.68 300.96 402 300.96L402.01 300.95Z" fill="black"/>
<path d="M1119 162.13V167.1H1067.4V162.13L1069.02 162.25C1072.8 162.17 1075.92 160.9 1078.39 158.43C1080.94 155.89 1082.21 152.8 1082.21 149.18V19.1898C1082.21 15.5698 1080.9 12.4798 1078.28 9.93977C1075.73 7.31977 1072.68 6.00977 1069.14 6.00977L1067.4 6.23977V1.25977H1119V6.22977L1117.38 5.99977C1113.68 6.14977 1110.55 7.49977 1108.01 10.0498C1105.46 12.5198 1104.19 15.5598 1104.19 19.1898V149.18C1104.19 152.8 1105.46 155.89 1108.01 158.43C1110.63 160.97 1113.76 162.25 1117.38 162.25L1119 162.13Z" fill="black"/>
<path d="M1051.43 6.00039H1049.93C1043.91 6.00039 1038.82 8.08039 1034.66 12.2504C1030.49 16.4104 1028.3 21.5404 1028.06 27.6304V140.27C1028.3 146.44 1030.49 151.6 1034.66 155.77C1038.82 159.93 1043.91 162.01 1049.93 162.01H1051.43V166.75H1016.03L1011.98 161.32L912.83 26.3604C912.75 26.8204 912.72 27.2504 912.72 27.6304V140.27C912.95 146.44 915.15 151.6 919.31 155.77C923.47 159.93 928.57 162.01 934.58 162.01H936.08V166.75H884.6V162.01H886.1C892.12 162.01 897.21 159.93 901.37 155.77C905.53 151.61 907.73 146.44 907.96 140.27V27.6304C907.73 21.5404 905.53 16.4104 901.37 12.2504C897.2 8.09039 892.11 6.00039 886.1 6.00039H884.6V1.15039H920.23L1023.19 141.43C1023.27 141.04 1023.31 140.66 1023.31 140.27V27.6304C1023.08 21.5404 1020.88 16.4104 1016.72 12.2504C1012.55 8.09039 1007.46 6.00039 1001.44 6.00039H999.94V1.15039H1051.42V6.01039L1051.43 6.00039Z" fill="black"/>
<path d="M873.73 162.13V167.1H822.13V162.13L823.75 162.25C827.53 162.17 830.65 160.9 833.12 158.43C835.66 155.89 836.94 152.8 836.94 149.18V19.1898C836.94 15.5698 835.63 12.4798 833.01 9.93977C830.47 7.31977 827.42 6.00977 823.87 6.00977L822.13 6.23977V1.25977H873.73V6.22977L872.11 5.99977C868.41 6.14977 865.28 7.49977 862.74 10.0498C860.2 12.5198 858.92 15.5598 858.92 19.1898V149.18C858.92 152.8 860.19 155.89 862.74 158.43C865.36 160.97 868.49 162.25 872.11 162.25L873.73 162.13Z" fill="black"/>
<path d="M664.66 29.2504V1.15039H806.27V29.2504H801.41V27.7504C801.41 21.7404 799.33 16.6504 795.16 12.4804C791 8.32039 785.87 6.12039 779.77 5.89039H759.41C755.79 6.04039 752.7 7.39039 750.15 9.94039C747.68 12.4104 746.45 15.4104 746.45 18.9604V148.83C746.45 152.45 747.72 155.58 750.27 158.2C752.89 160.74 755.98 162.02 759.53 162.02L761.15 161.9V166.76H709.67V161.9L711.29 162.02C715.07 161.94 718.19 160.63 720.66 158.09C723.2 155.55 724.48 152.46 724.48 148.84V18.7304C724.33 15.1104 723.01 12.1004 720.55 9.71039C718.08 7.32039 715.04 6.05039 711.41 5.89039H691.16C685.07 6.12039 679.94 8.32039 675.77 12.4804C671.61 16.6404 669.52 21.7304 669.52 27.7504V29.2504H664.66Z" fill="black"/>
<path d="M603.46 70.77C620.35 76.17 633.97 84.26 644.3 95.06C651.01 102.54 654.37 110.79 654.37 119.81C654.37 131.68 648.35 142.36 636.32 151.85C623.59 161.26 609.33 166.77 593.51 168.39C591.2 168.54 588.92 168.62 586.68 168.62C585.45 168.62 584.17 168.58 582.86 168.5C573.99 167.88 565.58 165.92 557.64 162.6C549.77 159.28 542.37 155.7 535.43 151.84L534.97 151.61C533.51 150.61 532.08 150.11 530.69 150.11C530.38 150.11 530.03 150.19 529.65 150.34C528.03 150.96 527.14 153.12 526.99 156.82V158.32H522.13V106.63H527.11L526.99 108.25V108.71C526.99 110.87 527.53 112.91 528.61 114.84C529.77 116.69 531.08 118.46 532.54 120.16C544.57 134.42 558.19 144.6 573.38 150.69C580.24 153.39 587.19 155.09 594.21 155.78C596.76 156.01 599.3 156.13 601.85 156.13C606.71 156.13 611.34 155.67 615.73 154.74C623.13 153.04 629.5 150.04 634.82 145.72C639.6 141.87 642.22 137.74 642.69 133.35C642.77 132.73 642.8 132.12 642.8 131.5C642.8 130.88 642.76 130.23 642.69 129.53C641.99 122.98 639.6 117.39 635.52 112.76C631.51 108.06 626.53 104.09 620.6 100.85C614.66 97.53 608.41 94.72 601.86 92.41C595.3 90.17 588.75 88.52 582.19 87.44C574.25 86.21 565.53 83.78 556.04 80.15C553.34 79.07 549.87 77.34 545.63 74.95C541.39 72.48 537.18 69.28 533.02 65.35C525.07 57.72 521.1 49.51 521.1 40.72C521.1 27.84 528.66 17.44 543.78 9.49C550.57 6.17 557.43 3.78 564.37 2.32C571.39 0.86 577.52 0.12 582.77 0.12C583.16 0.04 583.58 0 584.04 0C598.54 0 612.35 3.55 625.46 10.64C626.39 11.26 627.23 11.57 628.01 11.57C628.16 11.57 628.32 11.53 628.47 11.45C628.86 11.22 629.16 10.91 629.4 10.52C630.94 8.21 631.71 5.74 631.71 3.12L631.59 1.62H636.45V50.31H631.36L631.59 48.58V47.77C631.59 45.69 630.86 43.49 629.39 41.18C627.62 38.87 625.61 36.86 623.37 35.17C611.03 24.84 599.11 17.82 587.62 14.12C580.76 11.96 574.01 10.88 567.37 10.88C560.12 10.88 553.41 12.15 547.24 14.7C542.61 16.63 539.1 19.02 536.71 21.87C534.4 24.88 533.24 28.15 533.24 31.7C533.24 38.25 536.13 44.19 541.92 49.51C545.47 52.44 549.33 54.87 553.49 56.8C557.73 58.65 562.05 60.31 566.45 61.77L567.72 62.23C572.96 64 577.98 65.24 582.76 65.93C587.85 66.7 594.75 68.32 603.47 70.79L603.46 70.77Z" fill="black"/>
<path d="M510.67 162.13V167.1H459.07V162.13L460.69 162.25C464.47 162.17 467.59 160.9 470.06 158.43C472.61 155.89 473.88 152.8 473.88 149.18V19.1898C473.88 15.5698 472.57 12.4798 469.95 9.93977C467.4 7.31977 464.36 6.00977 460.81 6.00977L459.07 6.23977V1.25977H510.67V6.22977L509.05 5.99977C505.35 6.14977 502.22 7.49977 499.68 10.0498C497.13 12.5198 495.86 15.5598 495.86 19.1898V149.18C495.86 152.8 497.13 155.89 499.68 158.43C502.3 160.97 505.43 162.25 509.05 162.25L510.67 162.13Z" fill="black"/>
<path d="M403.77 5.77027V1.03027H454.56V5.89027L452.94 5.77027C449.16 5.77027 445.42 7.08027 441.72 9.70027C438.1 12.3203 435.43 15.5603 433.74 19.4103L433.62 19.6403L375.77 160.27L373.22 166.51H337.7V161.65L339.32 161.77C342.48 161.77 345.8 160.73 349.27 158.65C350.35 157.96 351.2 157.11 351.82 156.11C353.21 154.03 353.9 151.6 353.9 148.82C353.9 146.28 353.32 143.54 352.16 140.61L305.88 28.0803C303.1 21.7603 298.71 16.4803 292.69 12.2403C286.67 7.92027 280.58 5.76027 274.41 5.76027H272.91V1.03027H323.58V5.77027H322.08C318.76 5.77027 315.95 6.54027 313.63 8.08027H313.51C310.19 10.4703 308.54 13.9003 308.54 18.3703C308.54 20.9903 309.16 23.8403 310.39 26.9303L356.67 139.46C357.52 141.39 358.56 143.28 359.79 145.13L411.85 18.4903L411.97 18.2603C412.74 16.3303 413.13 14.5603 413.13 12.9403C413.13 11.3203 412.74 9.93027 411.97 8.78027C410.58 6.78027 408.38 5.77027 405.37 5.77027H403.75H403.77Z" fill="black"/>
<path d="M192.98 162.01V166.87H142.07C141.99 166.87 141.95 166.83 141.95 166.75V162.12C141.95 161.97 141.99 161.93 142.07 162H143.81C150.13 161.77 156.23 159.57 162.09 155.41C168.03 151.17 172.39 145.93 175.16 139.68L221.67 26.4598C222.83 23.5298 223.41 20.7898 223.41 18.2498C223.41 14.6998 222.29 11.6998 220.06 9.22984C216.2 6.52984 212.46 5.17984 208.84 5.17984H207.22V0.339844H242.85L242.97 0.459844L303.71 148.26C305.41 152.19 308.11 155.47 311.81 158.09C315.51 160.71 319.25 162.02 323.03 162.02L324.65 161.9V166.87H273.74C273.74 166.87 273.7 166.83 273.62 166.75V162.12C273.62 161.97 273.66 161.93 273.74 162H275.36C278.37 162 280.53 161 281.84 158.99C282.61 157.83 283 156.41 283 154.71C283 153.01 282.61 151.32 281.84 149.39L281.72 149.27L261.59 100.35C256.96 99.5798 252.26 99.1898 247.47 99.1898C233.05 99.1898 219.86 102.62 207.9 109.48C195.94 116.34 187 125.67 181.06 137.47C181.06 137.55 180.83 138.13 180.37 139.21C179.98 140.29 179.79 140.83 179.79 140.83C178.56 143.99 177.94 146.88 177.94 149.5C177.94 153.89 179.56 157.29 182.8 159.68L182.92 159.8C185.16 161.26 187.9 162 191.13 162H192.98V162.01ZM225.95 28.5598L188.7 118.88C188.7 118.96 188.74 118.99 188.82 118.99C199.08 107.96 212.04 100.53 227.69 96.6698C228.31 96.5198 229 96.3598 229.77 96.2098C235.02 95.0498 240.38 94.4398 245.85 94.3598H257.19C258.04 94.2098 258.46 93.7798 258.46 93.0898V92.7398L229.42 22.0798C229.34 21.9998 229.3 21.9598 229.3 21.9598C228.07 23.8098 227.06 25.6998 226.29 27.6298L225.94 28.5598H225.95Z" fill="black"/>
<path d="M0 161.9L1.62 162.13C5.32 161.98 8.41 160.67 10.88 158.2C13.43 155.66 14.7 152.57 14.7 148.95V19.1898C14.7 15.5698 13.43 12.4798 10.88 9.93977C8.33 7.39977 5.25 6.11977 1.62 6.11977L0 6.23977V1.25977H51.48V6.22977L49.86 6.10977C46.08 6.18977 42.92 7.49977 40.37 10.0398C37.9 12.5098 36.67 15.5498 36.67 19.1798V148.94C36.67 152.56 37.94 155.69 40.49 158.31C43.11 160.85 46.24 162.13 49.86 162.13H107.01C113.1 161.9 118.23 159.7 122.4 155.54C126.57 151.38 128.65 146.29 128.65 140.27V138.77H133.51V166.87H0V161.9Z" fill="black"/>
</svg>
