<?xml version="1.0" encoding="UTF-8"?>
<svg id="_Слой_2" data-name="Слой 2" xmlns="http://www.w3.org/2000/svg" viewBox="0 0 354.77 298">
  <defs>
    <style>
      .cls-1 {
        fill: #fff;
        stroke-width: 0px;
      }
    </style>
  </defs>
  <g id="_Слой_1-2" data-name="Слой 1">
    <g>
      <path class="cls-1" d="M0,291.11l2.24.32c5.12-.21,9.4-2.03,12.8-5.45,3.53-3.52,5.29-7.79,5.29-12.81V93.4c0-5.02-1.76-9.29-5.29-12.81-3.53-3.53-7.79-5.29-12.8-5.29l-2.24.16v-6.89h71.22v6.89l-2.24-.16c-5.23.11-9.61,1.92-13.12,5.45-3.42,3.42-5.12,7.63-5.12,12.66v179.76c0,5.02,1.76,9.34,5.29,12.97,3.63,3.52,7.95,5.29,12.96,5.29h79.06c8.43-.32,15.53-3.37,21.28-9.13,5.76-5.77,8.64-12.81,8.64-21.15v-2.08h6.72v38.93H0v-6.89Z"/>
      <path class="cls-1" d="M141.22,6.51V0h-69.65v6.67l2.23-.16c5.18,0,10.31,1.8,15.39,5.39,4.97,3.6,8.61,8.04,10.95,13.34l.16.32,79.33,193.11,3.49,8.57,18.41-29.38L130.11,23.97l-.16-.32c-1.06-2.65-1.59-5.08-1.59-7.3s.53-4.13,1.59-5.71c1.91-2.76,4.92-4.13,9.04-4.13h2.23Z"/>
      <path class="cls-1" d="M210.63,180.56h-2.03s26.68-49.25,34.36-65.35c5.23-10.94-.52-19.32-7.57-24.59-5.94-4.44-13.58-5.39-20.99-5.56l-30.58-.65v-1.85l41.77-1.14c1.32,0,2.65-.08,3.98-.23,33.15-3.68,52.91-37.21,71.84-64.64l4.8-6.95h2.15s-11.61,19.5-18.25,38.4c-4.73,13.44-.61,22.58,4.58,27.69,3.62,3.57,8.93,4.33,14,4.48l46.1,1.39v1.62l-53.78,1.19c-24.09,3.7-45.03,25.04-52.48,35.26l-37.88,60.92h0Z"/>
    </g>
  </g>
</svg>